<svg xmlns="http://www.w3.org/2000/svg" width="16" height="16" viewBox="21 22 16 16"><path d="M37 38H21v-1a5.524 5.524 0 0 1 3.28-4.974C25.57 31.369 27.179 31 29 31c2.799 0 5.096.871 6.5 2.319A5.187 5.187 0 0 1 37 37v1Zm-13.841-2H34.84a3.7 3.7 0 0 0-1.563-1.914C32.222 33.399 30.74 33 29 33a9.672 9.672 0 0 0-2.335.27c-.746.186-1.401.463-1.944.817A3.7 3.7 0 0 0 23.159 36ZM25 26a4.005 4.005 0 0 0 4 4 4.005 4.005 0 0 0 4-4 4.005 4.005 0 0 0-4-4 4.005 4.005 0 0 0-4 4Zm4-2c-1.103 0-2 .896-2 2 0 1.103.897 2 2 2s2-.897 2-2c0-1.104-.897-2-2-2Z" fill="#53c6ea" fill-rule="evenodd" data-name="Shape 23"/></svg>