<svg xmlns="http://www.w3.org/2000/svg" width="2.996" height="18.985" viewBox="255 23 2.996 18.985"><path d="M256.498 26.396c.827 0 1.498-.76 1.498-1.698a1.839 1.839 0 0 0-.32-1.048 1.44 1.44 0 0 0-1.178-.65 1.494 1.494 0 0 0-1.346.953 1.88 1.88 0 0 0-.152.745 1.839 1.839 0 0 0 .32 1.049 1.44 1.44 0 0 0 1.178.65Zm0 12.193a1.494 1.494 0 0 0-1.346.953 1.88 1.88 0 0 0-.152.745 1.839 1.839 0 0 0 .32 1.049 1.44 1.44 0 0 0 1.178.65 1.494 1.494 0 0 0 1.346-.953 1.88 1.88 0 0 0 .152-.746c0-.937-.671-1.698-1.498-1.698Zm0-7.794a1.494 1.494 0 0 0-1.346.952 1.88 1.88 0 0 0-.152.746 1.839 1.839 0 0 0 .32 1.048 1.44 1.44 0 0 0 1.178.65c.827 0 1.498-.76 1.498-1.698a1.839 1.839 0 0 0-.32-1.049 1.44 1.44 0 0 0-1.178-.65Z"  fill-rule="evenodd" data-name="Shape 6 copy"/></svg>