<svg xmlns="http://www.w3.org/2000/svg" width="54.296" height="54.284" viewBox="112 116 54.296 54.284"><path d="M135.153 118.752a25.898 25.898 0 0 0-6.014 1.99L112 116l2.917 10.545 1.828 6.604a25.935 25.935 0 0 0-2.488 11.116c0 6.659 2.54 13.318 7.621 18.398a26.399 26.399 0 0 0 1.344 1.254c6.258 5.442 14.497 7.395 22.178 5.86a25.898 25.898 0 0 0 13.275-7.114 26.399 26.399 0 0 0 1.254-1.344c5.442-6.258 7.395-14.497 5.86-22.178a25.898 25.898 0 0 0-7.114-13.275 26.399 26.399 0 0 0-1.344-1.253c-6.258-5.442-14.497-7.396-22.178-5.861Z"  fill-rule="evenodd" data-name="Polygon 2"/></svg>