<svg xmlns="http://www.w3.org/2000/svg" width="30" height="20" viewBox="0 10 30 20"><path d="M30 28.323C30 29.25 29.23 30 28.282 30H1.718C.769 30 0 29.25 0 28.323v-.217a1.698 1.698 0 0 1 1.718-1.677h26.564c.949 0 1.718.75 1.718 1.677v.217Zm-1.718-14.751A1.698 1.698 0 0 0 30 11.895v-.218A1.698 1.698 0 0 0 28.282 10H1.718A1.698 1.698 0 0 0 0 11.677v.218c0 .926.77 1.677 1.718 1.677h26.564Zm-14.634 7.857a1.698 1.698 0 0 0 1.718-1.677v-.218a1.698 1.698 0 0 0-1.718-1.677H1.718A1.698 1.698 0 0 0 0 19.534v.218c0 .926.77 1.677 1.718 1.677h11.93Z"  fill-rule="evenodd" data-name="Shape 1"/></svg>