<svg xmlns="http://www.w3.org/2000/svg" width="17.967" height="17"><path d="M16.334 1.619H14.7V0h-1.633v4.048h-1.634V1.619h-4.9V0H4.9v4.048H3.267V1.619H1.633c-.9 0-1.633.727-1.633 1.62V15.38C0 16.273.732 17 1.633 17h14.7a1.628 1.628 0 0 0 1.634-1.62V3.239a1.629 1.629 0 0 0-1.633-1.619ZM5.717 14.571H2.45v-3.238h3.267v3.238Zm4.9 0H7.35v-3.238h3.267v3.238Zm-4.9-4.857H2.45V6.476h3.267v3.238Zm4.9 0H7.35V6.476h3.267v3.238Zm4.9 0H12.25V6.476h3.267v3.238Z" fill="#53c6ea" fill-rule="evenodd" data-name="Shape 7"/></svg>