<svg xmlns="http://www.w3.org/2000/svg" width="18" height="18" viewBox="21 23 18 18"><path d="M37 41H23a2.002 2.002 0 0 1-2-2V25c0-1.102.897-2 2-2h14a2.003 2.003 0 0 1 2 2v14a2.002 2.002 0 0 1-2 2Zm-1-8v-2h-2.142a3.942 3.942 0 0 0-.425-1.019l1.517-1.517-1.414-1.414-1.517 1.517A3.94 3.94 0 0 0 31 28.142V26h-2v2.142a3.94 3.94 0 0 0-1.019.425l-1.517-1.517-1.414 1.414 1.517 1.517A3.94 3.94 0 0 0 26.142 31H24v2h2.142a3.93 3.93 0 0 0 .425 1.019l-1.517 1.517 1.414 1.414 1.517-1.517a3.94 3.94 0 0 0 1.019.425V38h2v-2.142a3.942 3.942 0 0 0 1.019-.425l1.517 1.517 1.414-1.414-1.517-1.517A3.933 3.933 0 0 0 33.858 33H36Zm-13-8v14h14.001L37 25H23Zm7 9c-1.103 0-2-.897-2-2 0-1.102.897-2 2-2a2.003 2.003 0 0 1 2 2c0 1.103-.897 2-2 2Z" fill="#53c6ea" fill-rule="evenodd" data-name="Shape 24"/></svg>