<svg xmlns="http://www.w3.org/2000/svg" width="24" height="20" viewBox="18 21 24 20"><path d="M39 21h-9a3.003 3.003 0 0 0-3 3v10h-4c-3.63 0-4.84 5.143-4.97 5.753a3.95 3.95 0 0 0-.01.05.999.999 0 0 0-.016.113A.998.998 0 0 0 18 40a.999.999 0 0 0 .227.634A1 1 0 0 0 19 41h8a1 1 0 0 0 1-1h7a3.003 3.003 0 0 0 3-3v-9h3a1 1 0 0 0 1-1v-3a3.003 3.003 0 0 0-3-3Zm-3 16a1 1 0 0 1-1 1 1.05 1.05 0 0 1-.891-.589.912.912 0 0 1-.109-.402.695.695 0 0 1 0-.009 3.16 3.16 0 0 0-3-3h-2V24a1 1 0 0 1 1-1h6.184A2.974 2.974 0 0 0 36 24v13Zm-9.929 2h-5.745c.29-.81.741-1.755 1.346-2.365A1.884 1.884 0 0 1 23 36h4.164c-.559.826-.882 1.79-1.04 2.667a8.059 8.059 0 0 0-.053.333Zm3.93-12h5v-2h-5v2Zm0 3h5v-2h-5v2Zm0 3h5v-2h-5v2Zm2 4a.572.572 0 0 0-.003-.05c-.04-.438-.566-.95-.998-.95-1.514 0-2.262 1-2.633 2h3.83A2.815 2.815 0 0 1 32 37Zm8-11h-2v-2a1 1 0 0 1 1-1 1 1 0 0 1 1 1v2Z" fill="#53c6ea" fill-rule="evenodd" data-name="Shape 17"/></svg>