<svg xmlns="http://www.w3.org/2000/svg" width="23.978" height="20"><path d="M20.98 0h-8.99a3.002 3.002 0 0 0-2.998 3v9h4.995a2.73 2.73 0 0 1 1.119.233c1.252.557 1.878 1.975 1.878 2.767v2c-.549 0-.992-.54-.998-.99a.696.696 0 0 1 0-.01 3.159 3.159 0 0 0-2.998-3H4.996a3.54 3.54 0 0 0-1.702.427C.976 14.674.138 18.251.03 18.753a4.215 4.215 0 0 0-.01.05A.999.999 0 0 0 1 20h7.992a1 1 0 0 0 .999-1h6.993a3.002 3.002 0 0 0 2.998-3V7h2.997a1 1 0 0 0 .999-1V3a3.002 3.002 0 0 0-2.997-3Zm-2.996 8H10.99V6h6.994v2Zm0-3H10.99V3h6.994v2Zm0 6H10.99V9h6.994v2Zm-6.306 4.317A3.073 3.073 0 0 0 10.358 17h3.826a2.82 2.82 0 0 1-.197-1 .572.572 0 0 0-.002-.05c-.034-.38-.436-.817-.824-.925a.647.647 0 0 0-.173-.025 3.19 3.19 0 0 0-.33.017c-.378.04-.702.146-.98.3ZM21.98 5h-1.998V3a1 1 0 0 1 .999-1 1 1 0 0 1 .999 1v2Z" fill="#53c6ea" fill-rule="evenodd" data-name="Shape 8"/></svg>